<?xml version="1.0" encoding="utf-8"?>
<!-- Generator: Adobe Illustrator 28.2.0, SVG Export Plug-In . SVG Version: 6.00 Build 0)  -->
<svg version="1.1" id="Layer_1" xmlns="http://www.w3.org/2000/svg" xmlns:xlink="http://www.w3.org/1999/xlink" x="0px" y="0px"
	 viewBox="0 0 1920 1080" style="enable-background:new 0 0 1920 1080;" xml:space="preserve">
<style type="text/css">
	.st0{fill:#282A34;}
	.st1{fill-rule:evenodd;clip-rule:evenodd;fill:#FF9A04;}
	.st2{fill:#282C34;stroke:#FF9904;stroke-width:10;stroke-miterlimit:10;}
	.st3{font-family:'Modak';}
	.st4{font-size:235.2266px;}
	.st5{fill:#FF9904;}
	.st6{letter-spacing:16.38;}
	.st7{fill:#FFFFFF;stroke:#FF9904;stroke-width:5;stroke-miterlimit:10;}
	.st8{font-family:'BalooBhaijaan-Regular';}
	.st9{font-size:350px;}
	.st10{letter-spacing:-1.49;}
</style>
<g>
	<rect x="0.5" y="0.5" class="st0" width="1919" height="1108"/>
	<path d="M1919,1v1107H1V1H1919 M1920,0H0v1109h1920V0L1920,0z"/>
</g>
<path class="st1" d="M358.31,414.95c36.07,0,65.31,29.24,65.31,65.31v-65.31h65.31c36.07,0,65.31,29.24,65.31,65.31
	c0,36.07-29.24,65.31-65.31,65.31c36.07,0,65.31,29.24,65.31,65.31c0,17.91-7.21,34.14-18.88,45.93l-0.24,0.25l-0.22,0.22
	c-11.8,11.69-28.04,18.91-45.96,18.91c-17.8,0-33.94-7.12-45.72-18.68c-0.15-0.15-0.31-0.3-0.46-0.45
	c-0.14-0.14-0.29-0.29-0.43-0.43c-11.57-11.78-18.7-27.93-18.7-45.75c0,36.07-29.24,65.31-65.31,65.31
	c-36.07,0-65.31-29.24-65.31-65.31v-65.31h65.31c-36.07,0-65.31-29.24-65.31-65.31C293,444.19,322.24,414.95,358.31,414.95z
	 M410.56,480.26c0,28.86-23.39,52.25-52.25,52.25V428.02C387.16,428.02,410.56,451.41,410.56,480.26z M541.17,610.88
	c0-28.86-23.39-52.25-52.25-52.25s-52.25,23.39-52.25,52.25H541.17z M306.06,558.63v52.25c0,28.86,23.39,52.25,52.25,52.25
	c28.86,0,52.25-23.39,52.25-52.25v-52.25H306.06z M436.68,532.51V428.02h52.25c28.86,0,52.25,23.39,52.25,52.25
	c0,28.86-23.39,52.25-52.25,52.25H436.68z"/>
<text transform="matrix(0.6715 0 0 1 570.8784 675.6963)"><tspan x="0" y="0" class="st2 st3 st4">KISS</tspan><tspan x="485.85" y="0" class="st5 st3 st4 st6"> </tspan><tspan x="558.62" y="0" class="st7 st8 st9 st10">MOVIE</tspan></text>
</svg>
